<?xml version="1.0" encoding="utf-8"?>
<!-- Generator: Adobe Illustrator 16.0.0, SVG Export Plug-In . SVG Version: 6.00 Build 0)  -->
<!DOCTYPE svg PUBLIC "-//W3C//DTD SVG 1.1//EN" "http://www.w3.org/Graphics/SVG/1.1/DTD/svg11.dtd">
<svg version="1.1" id="Capa_1" xmlns="http://www.w3.org/2000/svg" xmlns:xlink="http://www.w3.org/1999/xlink" x="0px" y="0px"
	 width="150px" height="150px" viewBox="0 0 150 150" enable-background="new 0 0 150 150" xml:space="preserve">
<path fill-rule="evenodd" clip-rule="evenodd" fill="#FFFFFF" d="M106.826,75.123c0,7.724,0.005,15.447-0.002,23.171
	c-0.003,2.376-0.558,4.583-2.15,6.425c-1.926,2.227-4.46,3.087-7.315,3.09c-12.203,0.016-24.407,0.006-36.611,0.008
	c-2.696,0-5.393,0.018-8.088,0.018c-5.471,0-9.445-3.969-9.445-9.437c-0.001-2.188,0.039-4.376,0.035-6.563
	c-0.022-13.195-0.055-26.389-0.077-39.583c-0.004-2.379,0.442-4.637,1.942-6.572c1.777-2.296,4.145-3.491,7.031-3.495
	C67.37,42.16,82.595,42.16,97.818,42.18c5.092,0.006,8.999,4.065,9.006,9.285C106.833,59.352,106.826,67.236,106.826,75.123z
	 M49.86,70.032c0,0.289,0.002,0.529,0,0.771c-0.013,3.344-0.025,6.688-0.041,10.031c-0.025,5.531-0.056,11.064-0.078,16.597
	c-0.008,1.968,0.736,2.711,2.709,2.741c0.102,0.002,0.203,0.001,0.305,0.001c14.878,0,29.755,0,44.633-0.002
	c0.283,0,0.568,0.001,0.85-0.025c1.245-0.116,1.858-0.71,2.01-1.95c0.034-0.28,0.029-0.566,0.029-0.85
	c0.002-5.271,0-10.541,0.003-15.811c0.001-3.689,0.008-7.377,0.021-11.066c0.001-0.408-0.132-0.693-0.567-0.696
	c-1.758-0.012-3.518-0.005-5.294-0.005c0,0.21-0.015,0.369,0.003,0.525c0.294,2.648,0.317,5.293-0.115,7.932
	c-1.071,6.534-4.393,11.479-10.416,14.389c-4.211,2.032-8.664,2.837-13.288,1.743c-8.376-1.98-16.216-10.179-15.249-21.119
	c0.095-1.064,0.266-2.121,0.403-3.205C53.842,70.032,51.901,70.032,49.86,70.032z M87.688,75.131
	c0.002-6.934-5.562-12.526-12.496-12.563c-6.892-0.036-12.615,5.542-12.621,12.303c-0.007,7.089,5.587,12.826,12.513,12.834
	C81.953,87.712,87.687,81.993,87.688,75.131z M94.022,62.1c1.418,0,2.836,0.013,4.254-0.004c1.182-0.014,1.735-0.52,1.77-1.69
	c0.059-2.023,0.078-4.048,0.084-6.073c0.003-0.971-0.023-1.943-0.104-2.911c-0.075-0.913-0.56-1.38-1.472-1.491
	c-0.562-0.068-1.131-0.101-1.697-0.1c-2.348,0.007-4.698-0.007-7.045,0.065c-1.36,0.042-1.925,0.614-1.948,1.972
	c-0.05,2.774-0.057,5.55-0.005,8.323c0.026,1.409,0.62,1.9,2.03,1.908C91.268,62.106,92.646,62.1,94.022,62.1z"/>
</svg>
