<?xml version="1.0" encoding="utf-8"?>
<!-- Generator: Adobe Illustrator 16.0.0, SVG Export Plug-In . SVG Version: 6.00 Build 0)  -->
<!DOCTYPE svg PUBLIC "-//W3C//DTD SVG 1.1//EN" "http://www.w3.org/Graphics/SVG/1.1/DTD/svg11.dtd">
<svg version="1.1" id="Capa_1" xmlns="http://www.w3.org/2000/svg" xmlns:xlink="http://www.w3.org/1999/xlink" x="0px" y="0px"
	 width="150px" height="150px" viewBox="0 0 150 150" enable-background="new 0 0 150 150" xml:space="preserve">
<g>
	<g>
		<g>
			<g>
				<path fill="#E777CB" d="M75,122.27c-26.064,0-47.27-21.203-47.27-47.269C27.73,48.936,48.936,27.73,75,27.73
					c26.064,0,47.27,21.205,47.27,47.271C122.27,101.064,101.064,122.27,75,122.27z M75,30.779
					c-24.383,0-44.221,19.838-44.221,44.222s19.838,44.22,44.221,44.22s44.221-19.836,44.221-44.22S99.383,30.779,75,30.779z"/>
			</g>
		</g>
		<g>
			<g>
				<g>
					<path fill="#E777CB" d="M100.959,49.395c-0.22-0.098-0.434-0.149-0.636-0.149c-0.405,0-0.802,0.199-1.209,0.608
						c-1.442,1.445-2.888,2.89-4.332,4.334c-2.325,2.323-4.649,4.647-6.968,6.979c-0.541,0.545-1.013,1.37-0.18,2.203
						c0.596,0.595,1.504,0.513,2.215-0.196c2.59-2.578,5.174-5.165,7.758-7.751l3.55-3.553c0.553-0.551,0.599-0.848,0.594-0.949
						C101.743,50.083,101.514,49.645,100.959,49.395z"/>
					<path fill="#E777CB" d="M86.131,49.332c-0.173-0.053-0.339-0.079-0.492-0.079c-0.479,0-0.883,0.257-1.232,0.783l-1.417,2.126
						c-3.355,5.031-6.712,10.063-10.053,15.104c-0.536,0.807-0.429,1.638,0.271,2.118c0.686,0.468,1.606,0.215,2.139-0.584
						c2.077-3.109,4.15-6.221,6.224-9.332c1.707-2.564,3.414-5.128,5.125-7.689c0.283-0.425,0.406-0.758,0.412-1.118
						C87.082,49.953,86.771,49.525,86.131,49.332z"/>
					<path fill="#E777CB" d="M97.895,69.606c0.601-0.359,0.898-0.809,0.942-1.415c0.001-0.368-0.13-0.707-0.38-0.957
						c-0.255-0.256-0.614-0.396-1.012-0.396c-0.338,0-0.689,0.103-1.018,0.298c-4.104,2.448-8.496,5.089-14.24,8.563
						c-0.42,0.254-0.697,0.58-0.805,0.947c-0.103,0.35-0.043,0.719,0.17,1.069c0.443,0.731,1.29,0.909,2.088,0.433
						c2.746-1.637,5.487-3.283,8.229-4.929C93.877,72.015,95.886,70.81,97.895,69.606z"/>
					<path fill="#E777CB" d="M67.051,65.919c-0.536-0.537-1.05-0.819-1.485-0.819c-0.711,0-1.182,0.767-1.451,1.409
						c-1.076,2.563-2.148,5.129-3.222,7.693c-1.433,3.427-2.866,6.854-4.307,10.276c-1.353,3.213-2.574,6.42-3.939,9.627
						l-1.582,4.058v0.978c0,0.682,0.793,0.895,1.207,0.895c0.295,0,0.597-0.105,1.217-0.365
						c10.271-4.305,20.503-8.609,30.771-12.924c0.879-0.369,1.354-0.805,1.45-1.291c0.099-0.496-0.214-1.102-0.91-1.799
						C78.889,77.74,72.968,71.827,67.051,65.919z M79.079,85.79c-2.138,0.899-4.383,1.847-6.629,2.788
						c-5.303,2.229-10.606,4.453-15.911,6.677c-0.139,0.06-1.514,0.578-1.514,0.578l0.363-1.011l10.607-25.407l15.396,15.399
						L79.079,85.79z"/>
				</g>
				<path fill="#E777CB" d="M81.799,68.291c1.225-0.412,2.391,0.537,2.359,1.688c-0.025,0.938-0.913,1.771-1.842,1.728
					c-1.07-0.052-1.885-1.08-1.614-2.214C80.833,68.938,81.259,68.473,81.799,68.291"/>
				<path fill="#E777CB" d="M72.855,61.886c-0.029,0.966-0.856,1.719-1.847,1.679c-0.986-0.039-1.724-0.857-1.664-1.844
					c0.056-0.914,0.873-1.691,1.763-1.673C72.026,60.067,72.884,60.969,72.855,61.886"/>
				<path fill="#E777CB" d="M91.52,81.671c-0.99-0.028-1.711-0.813-1.68-1.823c0.031-1.011,0.794-1.703,1.818-1.652
					c0.96,0.048,1.646,0.773,1.642,1.734C93.294,80.895,92.469,81.7,91.52,81.671"/>
				<path fill="#E777CB" d="M67.377,75.064c0.837-0.018,1.555,0.657,1.568,1.473c0.014,0.79-0.727,1.531-1.528,1.533
					c-0.779,0-1.445-0.649-1.479-1.44C65.901,75.779,66.544,75.081,67.377,75.064"/>
				<path fill="#E777CB" d="M68.891,83.339c-0.855-0.019-1.499-0.687-1.467-1.526c0.032-0.834,0.72-1.453,1.574-1.418
					c0.797,0.033,1.428,0.687,1.424,1.477C70.418,82.706,69.74,83.355,68.891,83.339"/>
				<path fill="#E777CB" d="M99.445,60.446c1.227-0.41,2.393,0.538,2.361,1.688c-0.025,0.939-0.914,1.772-1.843,1.729
					c-1.069-0.051-1.885-1.079-1.614-2.214C98.48,61.095,98.906,60.628,99.445,60.446"/>
				<path fill="#E777CB" d="M89.643,48.028c1.226-0.411,2.391,0.537,2.359,1.688c-0.025,0.938-0.913,1.771-1.841,1.728
					c-1.071-0.051-1.886-1.079-1.615-2.213C88.677,48.676,89.102,48.21,89.643,48.028"/>
				<path fill="#E777CB" d="M74.566,82.255c0.837-0.019,1.556,0.656,1.569,1.472c0.014,0.791-0.727,1.533-1.529,1.533
					c-0.778,0-1.445-0.648-1.479-1.438C73.092,82.971,73.733,82.271,74.566,82.255"/>
				<path fill="#E777CB" d="M62.354,89.223c-0.855-0.019-1.498-0.688-1.466-1.527c0.032-0.834,0.72-1.453,1.575-1.418
					c0.796,0.031,1.427,0.687,1.423,1.477C63.882,88.589,63.204,89.238,62.354,89.223"/>
				<path fill="#E777CB" d="M68.684,84.869c0.838-0.018,1.557,0.656,1.568,1.472c0.014,0.791-0.726,1.533-1.528,1.533
					c-0.778,0.001-1.444-0.647-1.479-1.438C67.209,85.585,67.851,84.887,68.684,84.869"/>
				<path fill="#E777CB" d="M64.314,83.993c-0.855-0.019-1.498-0.687-1.466-1.527c0.032-0.835,0.72-1.452,1.574-1.419
					c0.797,0.033,1.428,0.688,1.424,1.477C65.843,83.359,65.165,84.01,64.314,83.993"/>
			</g>
		</g>
	</g>
</g>
</svg>
