<?xml version="1.0" encoding="UTF-8" standalone="no"?>
<svg
   xmlns:dc="http://purl.org/dc/elements/1.1/"
   xmlns:cc="http://creativecommons.org/ns#"
   xmlns:rdf="http://www.w3.org/1999/02/22-rdf-syntax-ns#"
   xmlns:svg="http://www.w3.org/2000/svg"
   xmlns="http://www.w3.org/2000/svg"
   xmlns:xlink="http://www.w3.org/1999/xlink"
   version="1.1"
   viewBox="0 0 1300 600"
   fill="none"
   stroke="none"
   stroke-linecap="square"
   stroke-miterlimit="10"
   id="svg48"
   width="1300"
   height="600">
  <metadata
     id="metadata54">
    <rdf:RDF>
      <cc:Work
         rdf:about="">
        <dc:format>image/svg+xml</dc:format>
        <dc:type
           rdf:resource="http://purl.org/dc/dcmitype/StillImage" />
        <dc:title></dc:title>
      </cc:Work>
    </rdf:RDF>
  </metadata>
  <defs
     id="defs52">
    <clipPath
       clipPathUnits="userSpaceOnUse"
       id="clipPath158">
      <use
         x="0"
         y="0"
         xlink:href="#g154"
         id="use160"
         width="100%"
         height="100%" />
    </clipPath>
  </defs>
  <clipPath
     id="p.0">
    <path
       d="M 0,0 H 1500 V 1500 H 0 Z"
       clip-rule="nonzero"
       id="path33" />
  </clipPath>
  <g
     id="g170">
    <g
       id="g156"
       clip-path="url(#clipPath158)">
      <g
         id="g154">
        <g
           clip-path="url(#p.0)"
           id="g46"
           transform="translate(-100,-310)">
          <path
             fill="#000000"
             fill-opacity="0"
             d="M 0,0 H 1500 V 1500 H 0 Z"
             fill-rule="evenodd"
             id="path36" />
          <path
             fill="#000000"
             fill-opacity="0"
             d="m 309,561 c 3.5,-0.5 13.66666,-3.16669 21,-3 7.33334,0.16669 17.16666,0.83331 23,4 5.83334,3.16669 9.66666,10.33331 12,15 2.33334,4.66669 1.33334,7 2,13 0.66666,6 2.33334,16.16669 2,23 -0.33334,6.83331 -1.5,11.16669 -4,18 -2.5,6.83331 -5.66666,14.66669 -11,23 -5.33334,8.33331 -12.16666,18 -21,27 -8.83334,9 -18.5,19.5 -32,27 -13.5,7.5 -34.5,16.5 -49,18 -14.5,1.5 -28,-5 -38,-9 -10,-4 -15.5,-9.16669 -22,-15 -6.5,-5.83331 -12.33333,-12.66669 -17,-20 -4.66667,-7.33331 -8.33333,-15 -11,-24 -2.66667,-9 -4.33333,-20.16669 -5,-30 -0.66667,-9.83331 0,-18.33331 1,-29 1,-10.66669 2,-23.66669 5,-35 3,-11.33331 7.83333,-22.33331 13,-33 5.16667,-10.66669 9.66667,-19.16666 18,-31 8.33333,-11.83334 19.5,-27.66666 32,-40 12.5,-12.33334 29,-23.66666 43,-34 14,-10.33334 26.5,-19.33334 41,-28 14.5,-8.66666 32.66666,-18.66666 46,-24 13.33334,-5.33334 22.66666,-6.33334 34,-8 11.33334,-1.66666 22.83334,-3.33334 34,-2 11.16666,1.33334 24.16666,4 33,10 8.83334,6 14.83334,14.33334 20,26 5.16666,11.66666 9.66666,30.16666 11,44 1.33334,13.83334 -0.33334,23.5 -3,39 -2.66666,15.5 -8,36.33331 -13,54 -5,17.66669 -10.33334,33.66669 -17,52 -6.66666,18.33331 -15,38.5 -23,58 -8,19.5 -16.16666,39.83331 -25,59 -8.83334,19.16669 -19,38.83331 -28,56 -9,17.16669 -21,37.16669 -26,47 -5,9.83331 -8,11 -4,12 4,1 16.83334,9.16669 28,-6 11.16666,-15.16669 26,-56.16669 39,-85 13,-28.83331 25.5,-61.83331 39,-88 13.5,-26.16669 26,-43.66669 42,-69 16,-25.33331 37.16669,-60.5 54,-83 16.83331,-22.5 33.16669,-40.83334 47,-52 13.83331,-11.16666 26.5,-13.16666 36,-15 9.5,-1.83334 15,0.33334 21,4 6,3.66666 12,11 15,18 3,7 3.16669,13.16666 3,24 -0.16669,10.83334 -1.66669,26.83334 -4,41 -2.33331,14.16669 -6.16669,29.5 -10,44 -3.83331,14.5 -8.66669,29 -13,43 -4.33331,14 -7.83331,26.16669 -13,41 -5.16669,14.83331 -11.33331,32.16669 -18,48 -6.66669,15.83331 -13,29.83331 -22,47 -9,17.16669 -27.83331,44.66669 -32,56 -4.16669,11.33331 1.83331,14.83331 7,12 5.16669,-2.83331 13.5,-11.83331 24,-29 10.5,-17.16669 25.5,-51.33331 39,-74 13.5,-22.66669 26.16669,-39.5 42,-62 15.83331,-22.5 34.16669,-49 53,-73 18.83331,-24 41.83331,-52.83334 60,-71 18.16669,-18.16666 35.66669,-30.16666 49,-38 13.33331,-7.83334 22.83331,-8.5 31,-9 8.16669,-0.5 14.66669,-0.16666 18,6 3.33331,6.16666 3.83331,18.33334 2,31 -1.83331,12.66666 -7.33331,30.83331 -13,45 -5.66669,14.16669 -13.16669,24.33331 -21,40 -7.83331,15.66669 -18.16669,35.66669 -26,54 -7.83331,18.33331 -15.5,39.33331 -21,56 -5.5,16.66669 -9.16669,31 -12,44 -2.83331,13 -4.33331,23.83331 -5,34 -0.66669,10.16669 -0.16669,18.33331 1,27 1.16669,8.66669 3.5,17.83331 6,25 2.5,7.16669 4,11.66669 9,18 5,6.33331 10.33331,15.83331 21,20 10.66669,4.16669 35.83331,4.16669 43,5"
             fill-rule="evenodd"
             id="path38" />
          <path
             stroke="#000000"
             stroke-width="1"
             stroke-linejoin="round"
             stroke-linecap="butt"
             d="m 309,561 c 3.5,-0.5 13.66666,-3.16669 21,-3 7.33334,0.16669 17.16666,0.83331 23,4 5.83334,3.16669 9.66666,10.33331 12,15 2.33334,4.66669 1.33334,7 2,13 0.66666,6 2.33334,16.16669 2,23 -0.33334,6.83331 -1.5,11.16669 -4,18 -2.5,6.83331 -5.66666,14.66669 -11,23 -5.33334,8.33331 -12.16666,18 -21,27 -8.83334,9 -18.5,19.5 -32,27 -13.5,7.5 -34.5,16.5 -49,18 -14.5,1.5 -28,-5 -38,-9 -10,-4 -15.5,-9.16669 -22,-15 -6.5,-5.83331 -12.33333,-12.66669 -17,-20 -4.66667,-7.33331 -8.33333,-15 -11,-24 -2.66667,-9 -4.33333,-20.16669 -5,-30 -0.66667,-9.83331 0,-18.33331 1,-29 1,-10.66669 2,-23.66669 5,-35 3,-11.33331 7.83333,-22.33331 13,-33 5.16667,-10.66669 9.66667,-19.16666 18,-31 8.33333,-11.83334 19.5,-27.66666 32,-40 12.5,-12.33334 29,-23.66666 43,-34 14,-10.33334 26.5,-19.33334 41,-28 14.5,-8.66666 32.66666,-18.66666 46,-24 13.33334,-5.33334 22.66666,-6.33334 34,-8 11.33334,-1.66666 22.83334,-3.33334 34,-2 11.16666,1.33334 24.16666,4 33,10 8.83334,6 14.83334,14.33334 20,26 5.16666,11.66666 9.66666,30.16666 11,44 1.33334,13.83334 -0.33334,23.5 -3,39 -2.66666,15.5 -8,36.33331 -13,54 -5,17.66669 -10.33334,33.66669 -17,52 -6.66666,18.33331 -15,38.5 -23,58 -8,19.5 -16.16666,39.83331 -25,59 -8.83334,19.16669 -19,38.83331 -28,56 -9,17.16669 -21,37.16669 -26,47 -5,9.83331 -8,11 -4,12 4,1 16.83334,9.16669 28,-6 11.16666,-15.16669 26,-56.16669 39,-85 13,-28.83331 25.5,-61.83331 39,-88 13.5,-26.16669 26,-43.66669 42,-69 16,-25.33331 37.16669,-60.5 54,-83 16.83331,-22.5 33.16669,-40.83334 47,-52 13.83331,-11.16666 26.5,-13.16666 36,-15 9.5,-1.83334 15,0.33334 21,4 6,3.66666 12,11 15,18 3,7 3.16669,13.16666 3,24 -0.16669,10.83334 -1.66669,26.83334 -4,41 -2.33331,14.16669 -6.16669,29.5 -10,44 -3.83331,14.5 -8.66669,29 -13,43 -4.33331,14 -7.83331,26.16669 -13,41 -5.16669,14.83331 -11.33331,32.16669 -18,48 -6.66669,15.83331 -13,29.83331 -22,47 -9,17.16669 -27.83331,44.66669 -32,56 -4.16669,11.33331 1.83331,14.83331 7,12 5.16669,-2.83331 13.5,-11.83331 24,-29 10.5,-17.16669 25.5,-51.33331 39,-74 13.5,-22.66669 26.16669,-39.5 42,-62 15.83331,-22.5 34.16669,-49 53,-73 18.83331,-24 41.83331,-52.83334 60,-71 18.16669,-18.16666 35.66669,-30.16666 49,-38 13.33331,-7.83334 22.83331,-8.5 31,-9 8.16669,-0.5 14.66669,-0.16666 18,6 3.33331,6.16666 3.83331,18.33334 2,31 -1.83331,12.66666 -7.33331,30.83331 -13,45 -5.66669,14.16669 -13.16669,24.33331 -21,40 -7.83331,15.66669 -18.16669,35.66669 -26,54 -7.83331,18.33331 -15.5,39.33331 -21,56 -5.5,16.66669 -9.16669,31 -12,44 -2.83331,13 -4.33331,23.83331 -5,34 -0.66669,10.16669 -0.16669,18.33331 1,27 1.16669,8.66669 3.5,17.83331 6,25 2.5,7.16669 4,11.66669 9,18 5,6.33331 10.33331,15.83331 21,20 10.66669,4.16669 35.83331,4.16669 43,5"
             fill-rule="evenodd"
             id="path40" />
          <path
             fill="#000000"
             fill-opacity="0"
             d="m 1024.0006,627.999 c -2.3333,-2.33331 -7.1666,-10.83331 -13.9999,-14 -6.8334,-3.16669 -18.00004,-5 -27.00004,-5 -9,0 -17.33337,0.33331 -27,5 -9.66669,4.66669 -21.83337,14.83331 -31,23 -9.16669,8.16669 -16.66669,16 -24,26 -7.33337,10 -15.16669,23.83331 -20,34 -4.83337,10.16669 -6.66669,18.16669 -9,27 -2.33337,8.83331 -4.83337,17.5 -5,26 -0.16669,8.5 1,19.16669 4,25 3,5.83331 8,9.5 14,10 6,0.5 14.5,-2.16669 22,-7 7.5,-4.83331 13.83331,-8.33331 23,-22 9.16663,-13.66669 22.16663,-43.83331 32,-60 9.83331,-16.16669 20,-29.5 27,-37 7,-7.5 9.66663,-6.83331 15.00004,-8 5.3333,-1.16669 17.3333,-3.33331 17,1 -0.3334,4.33331 -13.1667,17 -19,25 -5.83341,8 -10.50004,12.5 -16.00004,23 -5.5,10.5 -14.5,27.66669 -17,40 -2.5,12.33331 -0.16669,26.33331 2,34 2.16663,7.66669 4.83331,11.83331 11,12 6.16663,0.16669 17.5,-3.16669 26.00004,-11 8.5,-7.83331 17.1666,-21.16669 24.9999,-36 7.8334,-14.83331 14.6667,-36.5 22,-53 7.3334,-16.5 18.3334,-34.5 22,-46 3.6667,-11.5 -3.8333,-19 0,-23 3.8334,-4 20.5,-7.5 23,-1 2.5,6.5 -3.8333,25.16669 -8,40 -4.1666,14.83331 -12.5,33.66669 -17,49 -4.5,15.33331 -8.5,32.16669 -10,43 -1.5,10.83331 -0.3333,15.5 1,22 1.3334,6.5 3.1667,14 7,17 3.8334,3 10.5,2.5 16,1 5.5,-1.5 9.6667,-4.33331 17,-10 7.3334,-5.66669 18.5,-12 27,-24 8.5,-12 16.1667,-32 24,-48 7.8334,-16 17.3334,-31 23,-48 5.6667,-17 12.6667,-46 11,-54 -1.6666,-8 -15.3333,0.16669 -21,6 -5.6666,5.83331 -11.6666,17.16669 -13,29 -1.3333,11.83331 -2.5,33.66669 5,42 7.5,8.33331 29.1667,14.16669 40,8 10.8334,-6.16669 20.8334,-33.5 25,-45 4.1667,-11.5 -4,-20.33331 0,-24 4,-3.66669 24.6667,-9.83331 24,2 -0.6666,11.83331 -20.3333,54 -28,69 -7.6666,15 -13.1666,13.66669 -18,21 -4.8333,7.33331 -9,14 -11,23 -2,9 -3.1666,22.33331 -1,31 2.1667,8.66669 7,18.66669 14,21 7,2.33331 18.3334,-0.33331 28,-7 9.6667,-6.66669 20,-18.16669 30,-33 10,-14.83331 21.8334,-31.83331 30,-56 8.1667,-24.16669 21,-67.16669 19,-89 -2,-21.83331 -21.6666,-33.83331 -31,-42 -9.3333,-8.16669 -18.1666,-7.5 -25,-7 -6.8333,0.5 -13.8333,4.66669 -16,10 -2.1666,5.33331 -1.3333,17.33331 3,22 4.3334,4.66669 17.5,8.16669 23,6 5.5,-2.16669 8.3334,-15.83331 10,-19"
             fill-rule="evenodd"
             id="path42" />
          <path
             stroke="#000000"
             stroke-width="1"
             stroke-linejoin="round"
             stroke-linecap="butt"
             d="m 1024.0006,627.999 c -2.3333,-2.33331 -7.1666,-10.83331 -13.9999,-14 -6.8334,-3.16669 -18.00004,-5 -27.00004,-5 -9,0 -17.33337,0.33331 -27,5 -9.66669,4.66669 -21.83337,14.83331 -31,23 -9.16669,8.16669 -16.66669,16 -24,26 -7.33337,10 -15.16669,23.83331 -20,34 -4.83337,10.16669 -6.66669,18.16669 -9,27 -2.33337,8.83331 -4.83337,17.5 -5,26 -0.16669,8.5 1,19.16669 4,25 3,5.83331 8,9.5 14,10 6,0.5 14.5,-2.16669 22,-7 7.5,-4.83331 13.83331,-8.33331 23,-22 9.16663,-13.66669 22.16663,-43.83331 32,-60 9.83331,-16.16669 20,-29.5 27,-37 7,-7.5 9.66663,-6.83331 15.00004,-8 5.3333,-1.16669 17.3333,-3.33331 17,1 -0.3334,4.33331 -13.1667,17 -19,25 -5.83341,8 -10.50004,12.5 -16.00004,23 -5.5,10.5 -14.5,27.66669 -17,40 -2.5,12.33331 -0.16669,26.33331 2,34 2.16663,7.66669 4.83331,11.83331 11,12 6.16663,0.16669 17.5,-3.16669 26.00004,-11 8.5,-7.83331 17.1666,-21.16669 24.9999,-36 7.8334,-14.83331 14.6667,-36.5 22,-53 7.3334,-16.5 18.3334,-34.5 22,-46 3.6667,-11.5 -3.8333,-19 0,-23 3.8334,-4 20.5,-7.5 23,-1 2.5,6.5 -3.8333,25.16669 -8,40 -4.1666,14.83331 -12.5,33.66669 -17,49 -4.5,15.33331 -8.5,32.16669 -10,43 -1.5,10.83331 -0.3333,15.5 1,22 1.3334,6.5 3.1667,14 7,17 3.8334,3 10.5,2.5 16,1 5.5,-1.5 9.6667,-4.33331 17,-10 7.3334,-5.66669 18.5,-12 27,-24 8.5,-12 16.1667,-32 24,-48 7.8334,-16 17.3334,-31 23,-48 5.6667,-17 12.6667,-46 11,-54 -1.6666,-8 -15.3333,0.16669 -21,6 -5.6666,5.83331 -11.6666,17.16669 -13,29 -1.3333,11.83331 -2.5,33.66669 5,42 7.5,8.33331 29.1667,14.16669 40,8 10.8334,-6.16669 20.8334,-33.5 25,-45 4.1667,-11.5 -4,-20.33331 0,-24 4,-3.66669 24.6667,-9.83331 24,2 -0.6666,11.83331 -20.3333,54 -28,69 -7.6666,15 -13.1666,13.66669 -18,21 -4.8333,7.33331 -9,14 -11,23 -2,9 -3.1666,22.33331 -1,31 2.1667,8.66669 7,18.66669 14,21 7,2.33331 18.3334,-0.33331 28,-7 9.6667,-6.66669 20,-18.16669 30,-33 10,-14.83331 21.8334,-31.83331 30,-56 8.1667,-24.16669 21,-67.16669 19,-89 -2,-21.83331 -21.6666,-33.83331 -31,-42 -9.3333,-8.16669 -18.1666,-7.5 -25,-7 -6.8333,0.5 -13.8333,4.66669 -16,10 -2.1666,5.33331 -1.3333,17.33331 3,22 4.3334,4.66669 17.5,8.16669 23,6 5.5,-2.16669 8.3334,-15.83331 10,-19"
             fill-rule="evenodd"
             id="path44" />
        </g>
      </g>
    </g>
  </g>
</svg>
