<?xml version="1.0" encoding="UTF-8" standalone="no"?>
<svg
   xmlns:dc="http://purl.org/dc/elements/1.1/"
   xmlns:cc="http://creativecommons.org/ns#"
   xmlns:rdf="http://www.w3.org/1999/02/22-rdf-syntax-ns#"
   xmlns:svg="http://www.w3.org/2000/svg"
   xmlns="http://www.w3.org/2000/svg"
   version="1.1"
   viewBox="0 0 1300 600"
   fill="none"
   stroke="none"
   stroke-linecap="square"
   stroke-miterlimit="10"
   id="svg181"
   width="1300"
   height="600">
  <metadata
     id="metadata187">
    <rdf:RDF>
      <cc:Work
         rdf:about="">
        <dc:format>image/svg+xml</dc:format>
        <dc:type
           rdf:resource="http://purl.org/dc/dcmitype/StillImage" />
        <dc:title></dc:title>
      </cc:Work>
    </rdf:RDF>
  </metadata>
  <defs
     id="defs185" />
  <clipPath
     id="p.0">
    <path
       d="M 0,0 H 1500 V 1500 H 0 Z"
       clip-rule="nonzero"
       id="path170" />
  </clipPath>
  <g
     clip-path="url(#p.0)"
     id="g179"
     transform="translate(-100,-310)">
    <path
       fill="#000000"
       fill-opacity="0"
       d="M 0,0 H 1500 V 1500 H 0 Z"
       fill-rule="evenodd"
       id="path173" />
    <path
       fill="#000000"
       fill-opacity="0"
       d="M 124.91338,272.39633 H 1375.0867 v 660.9448 H 124.91338 Z"
       fill-rule="evenodd"
       id="path175" />
    <path
       fill="#000000"
       d="m 361.77277,600.4588 q 0,-36.79688 -34.65625,-36.79688 -4.8125,0 -11.75,0.8125 -6.92188,0.79688 -9.59375,-3.46875 -4.26563,-5.875 13.875,-8 6.39062,-1.07812 12.79687,-1.07812 30.9375,0 42.14063,26.67187 4.79687,11.20313 4.79687,28.53125 0,17.32813 -14.9375,43.46875 -26.14062,47.46875 -82.125,70.9375 -18.67187,8 -38.67187,8 -20,0 -41.32813,-10.14062 -39.46875,-18.67188 -54.9375,-62.40625 -5.875,-17.0625 -5.875,-42.92188 0,-25.875 14.40625,-65.34375 33.0625,-77.32809 108.79688,-131.71871 81.0625,-58.67188 151.46875,-58.67188 59.73437,0 80,48 9.0625,20.79688 9.0625,50.125 0,9.60938 -1.0625,19.73438 -5.32813,46.40621 -27.73438,106.14059 -3.73437,10.125 -3.73437,13.59375 0,3.46875 1.59375,3.46875 2.67187,0.53125 9.07812,-11.20313 39.45313,-72 86.92188,-129.06247 15.46875,-18.67187 37.34375,-30.39062 24,-12.8125 42.92188,-12.8125 18.9375,0 29.875,13.875 10.9375,13.85937 10.9375,36.79687 0,53.85935 -42.14063,179.73434 -8.53125,25.0625 -10.67187,32 43.20312,-67.73437 108.53125,-149.0625 65.34375,-81.34372 116,-96.26559 9.07812,-2.67187 16,-2.67187 20.26562,0 26.14062,20.26562 2.125,6.9375 2.125,16 0,27.20313 -21.32812,69.85934 -43.73438,87.46875 -59.73438,139.20312 -21.85937,68.26563 -21.85937,93.34375 0,25.0625 4.79687,41.59375 9.59375,33.0625 50.67188,33.0625 2.125,0 8.78125,-0.26562 6.67187,-0.26563 7.46875,2.39062 0.8125,2.67188 -3.71875,4.79688 -4.53125,2.14062 -9.07813,2.14062 -4.53125,0 -7.1875,-0.53125 -84.26562,-8.53125 -84.26562,-86.39062 0,-28.26563 11.45312,-64.26563 11.46875,-36 19.46875,-55.20312 12.8125,-30.9375 53.875,-121.0625 14.39063,-33.60935 14.39063,-51.2031 0,-17.60937 -14.92188,-17.60937 -20.8125,0 -64.53125,42.67187 -22.40625,22.40623 -48.54687,54.67185 -26.125,32.26562 -77.32813,113.0625 -51.20312,80.79687 -65.0625,113.85937 -12.26562,28.8125 -32.53125,28.8125 -14.40625,0 -17.0625,-10.14062 -1.60937,-4.26563 -0.0156,-6.67188 1.60937,-2.39062 10.14062,-17.85937 8.53125,-15.46875 17.59375,-32.53125 9.07813,-17.0625 21.60938,-46.39063 12.53125,-29.34375 23.20312,-59.75 25.59375,-75.1875 34.65625,-154.65622 1.07813,-9.07812 1.07813,-22.67187 0,-13.59375 -7.20313,-21.59375 -7.20312,-8 -15.20312,-8 -26.14063,0 -57.59375,39.46875 -42.67188,52.79684 -74.14063,103.73434 -31.46875,50.92188 -48.26562,85.59375 -16.79688,34.65625 -38.9375,83.46875 -22.125,48.79688 -23.46875,51.98438 -1.32813,3.20312 -3.73438,8 -2.39062,4.8125 -3.98437,9.07812 -6.9375,15.46875 -29.875,15.46875 -13.32813,0 -14.39063,-8.53125 0,-1.60937 0.53125,-3.73437 35.1875,-54.40625 77.85938,-164.8125 54.40625,-139.71872 54.40625,-203.71872 0,-76.26563 -62.9375,-76.26563 -40.53125,0 -102.14063,38.9375 -61.59375,38.92188 -102.125,99.71875 -16,23.99997 -24,46.40622 -13.85937,41.0625 -13.85937,65.0625 0,68.79688 45.85937,90.67188 16,8 32.53125,8 57.59375,0 94.40625,-62.40625 18.65625,-31.46875 18.65625,-54.9375 z m 671.46483,46.40625 q -9.5937,9.59375 -27.2031,43.46875 -17.59374,33.85937 -21.06249,50.67187 -3.46875,16.79688 -3.46875,27.20313 0,10.39062 8,10.39062 10.14062,0 25.06254,-18.67187 21.8749,-27.20313 43.203,-70.9375 2.1406,-4.79688 4.7969,-5.32813 4.2656,-1.59375 4.2656,3.20313 0,2.67187 -1.5937,6.40625 -49.0625,99.1875 -82.67184,99.1875 -15.45313,0 -25.0625,-14.92188 -4.79688,-8 -4.79688,-21.32812 0,-13.34375 5.32813,-32.54688 -42.65625,68.79688 -73.59375,68.79688 -8.53125,0 -15.46875,-5.32813 -16,-11.20312 -16,-38.40625 0,-52.26562 45.32812,-106.125 25.60938,-29.875 62.9375,-38.9375 10.14063,-2.65625 19.20313,-2.65625 24.53124,0 41.59374,17.0625 5.3437,5.85938 3.2031,11.20313 -2.1406,5.32812 -9.0625,4.26562 -5.875,-19.20312 -25.60934,-19.20312 -22.92188,0 -56.53125,36.26562 -19.20313,21.32813 -35.73438,50.125 -20.79687,34.67188 -20.79687,55.46875 0,20.79688 13.34375,20.79688 31.98437,0 83.71875,-98.125 10.14062,-19.73438 17.0625,-26.9375 6.9375,-7.20313 17.60934,-7.20313 2.1407,0 10.9375,1.60938 8.7968,1.59375 13.0625,0.53125 z m 166.3991,-41.59375 -2.6718,9.59375 q -27.1875,84.79687 -50.125,123.73437 -33.6094,56.53125 -70.4063,56.53125 -29.8594,0 -29.8594,-28.79687 0,-21.875 16,-67.73438 -5.3437,8.53125 -8.2812,5.60938 -2.9219,-2.9375 -1.3281,-7.21875 l 9.6093,-18.125 q 10.125,-20.79688 10.125,-41.59375 0,-20.8125 -8.5312,-24.54688 32,-5.32812 37.3281,-5.0625 5.3438,0.26563 6.6719,4.53125 1.3281,4.26563 1.3281,9.60938 0,32.53125 -16.7969,76.79687 -16.7968,44.26563 -16.7968,59.46875 0,15.1875 4.7968,17.59375 4.7969,2.40625 9.6094,2.40625 13.8594,0 31.4531,-22.39062 17.6094,-22.40625 35.2032,-66.14063 -7.4688,-17.07812 -7.4688,-30.14062 0,-13.0625 3.2031,-23.20313 9.6094,-30.39062 30.4063,-37.85937 4.2656,-1.60938 8,-1.60938 8.5312,0 8.5312,8.54688 z m 70.9351,-21.32813 q -7.4687,6.39063 -16.5469,6.39063 -9.0625,0 -14.3906,-6.39063 -5.3281,-6.40625 -4.2656,-15.48437 1.5937,-9.0625 9.0625,-15.45313 7.4687,-6.40625 16.5312,-6.40625 9.0782,0 14.6719,6.40625 5.5938,6.39063 4,15.46875 -1.5937,9.0625 -9.0625,15.46875 z m -52.2656,195.71875 q 10.125,0 21.3281,-10.125 19.7344,-19.73437 50.1406,-80.54687 3.7344,-8 7.4532,-4.79688 1.0781,1.07813 1.0781,3.48438 0,2.39062 -4.2656,11.71875 -4.2657,9.32812 -7.7344,16.79687 -3.4688,7.46875 -13.3438,24.26563 -9.8593,16.79687 -17.8593,25.875 -21.875,25.0625 -41.3438,25.0625 -19.4531,0 -27.9844,-11.73438 -8.5312,-11.73437 -8.5312,-26.125 0,-14.40625 6.9219,-31.46875 l 34.1406,-86.9375 q 1.0625,-3.20312 1.0625,-8.53125 0,-5.32812 -6.4063,-13.875 l 29.3438,-0.53125 q 12.2656,0 14.3906,4.54688 2.1406,4.53125 -3.1875,14.125 l -42.6719,99.73437 q -9.0625,19.73438 -9.0625,33.59375 0,15.46875 16.5313,15.46875 z"
       fill-rule="nonzero"
       id="path177" />
  </g>
</svg>
